<svg width="59" height="59" viewBox="0 0 59 59" fill="none" xmlns="http://www.w3.org/2000/svg">
<path d="M58.375 51.9583V7.04167C58.375 5.33986 57.699 3.70776 56.4956 2.5044C55.2922 1.30104 53.6601 0.625 51.9583 0.625H7.04167C5.33986 0.625 3.70776 1.30104 2.5044 2.5044C1.30104 3.70776 0.625 5.33986 0.625 7.04167V51.9583C0.625 53.6601 1.30104 55.2922 2.5044 56.4956C3.70776 57.699 5.33986 58.375 7.04167 58.375H51.9583C53.6601 58.375 55.2922 57.699 56.4956 56.4956C57.699 55.2922 58.375 53.6601 58.375 51.9583ZM19.875 48.75H13.4583V29.5H19.875V48.75ZM32.7083 48.75H26.2917V13.4583H32.7083V48.75ZM45.5417 48.75H39.125V23.0833H45.5417V48.75Z" fill="#41425A"/>
</svg>
