<svg width="24" height="25" viewBox="0 0 24 25" fill="none" xmlns="http://www.w3.org/2000/svg">
<g clip-path="url(#clip0_3815_10238)">
<path d="M24 12.5C24 5.87258 18.6274 0.5 12 0.5C5.37258 0.5 0 5.87258 0 12.5C0 19.1274 5.37258 24.5 12 24.5C18.6274 24.5 24 19.1274 24 12.5Z" fill="url(#paint0_radial_3815_10238)"/>
<path d="M7.93192 9.1499C10.1788 6.95003 13.8217 6.95003 16.0685 9.1499L16.3389 9.41465C16.4513 9.52465 16.4513 9.70298 16.3389 9.81297L15.4139 10.7187C15.3577 10.7737 15.2667 10.7737 15.2105 10.7187L14.8384 10.3543C13.2709 8.81964 10.7295 8.81964 9.16208 10.3543L8.76357 10.7445C8.70739 10.7995 8.61632 10.7995 8.56015 10.7445L7.63512 9.83881C7.52278 9.72882 7.52278 9.55048 7.63512 9.44049L7.93192 9.1499ZM17.9816 11.0229L18.8048 11.829C18.9172 11.939 18.9172 12.1173 18.8048 12.2273L15.0926 15.8619C14.9803 15.9719 14.7981 15.9719 14.6858 15.8619C14.6858 15.8619 14.6858 15.8619 14.6858 15.8619L12.0511 13.2823C12.023 13.2548 11.9775 13.2548 11.9494 13.2823H11.9494L9.31474 15.8619C9.20239 15.9719 9.02025 15.9719 8.90791 15.862C8.90791 15.862 8.90791 15.8619 8.90791 15.8619L5.19559 12.2273C5.08324 12.1173 5.08324 11.9389 5.19559 11.829L6.01886 11.0229C6.13121 10.9129 6.31335 10.9129 6.42569 11.0229L9.06044 13.6025C9.08852 13.63 9.13406 13.63 9.16215 13.6025C9.16215 13.6025 9.16215 13.6025 9.16215 13.6025L11.7968 11.0229C11.9091 10.9129 12.0912 10.9129 12.2036 11.0229C12.2036 11.0229 12.2036 11.0229 12.2036 11.0229L14.8383 13.6025C14.8664 13.63 14.912 13.63 14.94 13.6025L17.5747 11.0229C17.6871 10.9129 17.8692 10.9129 17.9816 11.0229Z" fill="white"/>
</g>
<defs>
<radialGradient id="paint0_radial_3815_10238" cx="0" cy="0" r="1" gradientUnits="userSpaceOnUse" gradientTransform="translate(0 12.5) scale(24)">
<stop stop-color="#5D9DF6"/>
<stop offset="1" stop-color="#006FFF"/>
</radialGradient>
<clipPath id="clip0_3815_10238">
<rect width="24" height="24" fill="white" transform="translate(0 0.5)"/>
</clipPath>
</defs>
</svg>
